<svg width="755" height="226" viewBox="0 0 755 226" fill="none" xmlns="http://www.w3.org/2000/svg">
<path d="M754.526 202.506H634.214V34.0685H661.714V178.444H727.026V154.381H754.526V202.506Z" fill="#0056B1"/>
<path d="M623.821 202.506H591.508L543.727 133.756H540.289L495.258 202.506H462.258L524.477 114.85L465.695 34.0685H498.695L542.695 99.0374H546.133L588.07 34.0685H620.383L562.289 114.85L623.821 202.506Z" fill="#0056B1"/>
<path d="M457.115 130.319C457.115 136.735 454.709 142.35 449.896 147.162C445.084 151.975 439.469 154.381 433.053 154.381H340.24V202.506H312.74V82.1936L336.802 58.1311H312.74V34.0685H433.053C439.469 34.0685 445.084 36.4748 449.896 41.2873C454.709 46.0998 457.115 51.7144 457.115 58.1311V130.319ZM429.615 130.319V58.1311H340.24V150.944L360.865 130.319H429.615Z" fill="#0056B1"/>
<rect x="50.2375" width="177.941" height="225.071" rx="31.6709" fill="#007FFF" fill-opacity="0.59"/>
<rect x="69.1772" y="34.0685" width="140.061" height="14.2749" rx="7.13746" fill="#96CAFF" fill-opacity="0.59"/>
<rect x="69.1772" y="60.0383" width="114.092" height="14.2749" rx="7.13746" fill="#96CAFF" fill-opacity="0.59"/>
<rect x="69.1772" y="86.0079" width="85.2365" height="14.2749" rx="7.13746" fill="#96CAFF" fill-opacity="0.59"/>
<path d="M0 177.264C0 168.934 6.75216 162.182 15.0814 162.182H169.348C174.093 162.182 177.941 166.029 177.941 170.775V201.303C177.941 213.169 186.596 223.262 198.324 225.071H31.6708C14.1795 225.071 0 210.891 0 193.4V177.264Z" fill="#0056B1"/>
</svg>
